<?xml version="1.0" standalone="no"?>
<!DOCTYPE svg PUBLIC "-//W3C//DTD SVG 20010904//EN"
 "http://www.w3.org/TR/2001/REC-SVG-20010904/DTD/svg10.dtd">
<svg version="1.0" xmlns="http://www.w3.org/2000/svg"
 width="500.000000pt" height="500.000000pt" viewBox="0 0 500.000000 500.000000"
 preserveAspectRatio="xMidYMid meet">

<g transform="translate(0.000000,500.000000) scale(0.100000,-0.100000)"
fill="#000000" stroke="none">
<path d="M2350 3974 c-14 -2 -64 -11 -112 -20 -356 -62 -657 -239 -880 -516
-88 -110 -124 -166 -112 -177 5 -4 29 -16 54 -25 161 -61 441 -188 656 -296
l251 -126 34 24 c141 98 298 113 445 42 162 -79 259 -260 235 -435 -11 -78 -9
-86 28 -108 96 -56 407 -305 618 -493 89 -79 166 -144 170 -144 23 0 125 206
174 347 51 150 63 231 63 433 1 212 -18 333 -80 511 -168 482 -576 843 -1084
960 -83 19 -396 35 -460 23z"/>
<path d="M729 3701 c-280 -7 -280 -7 -305 -68 -10 -22 -11 -39 -4 -55 5 -13
79 -144 163 -293 162 -283 172 -296 230 -281 38 9 87 54 87 80 0 13 -51 112
-114 222 -97 168 -112 200 -98 206 9 4 108 7 219 7 195 1 248 8 265 34 13 21
9 112 -6 133 -17 23 -48 24 -437 15z"/>
<path d="M1096 3065 c-21 -21 -73 -186 -91 -290 -44 -254 -22 -515 65 -775
123 -366 389 -666 758 -853 193 -98 371 -146 582 -154 231 -10 421 21 664 106
88 31 233 110 322 176 95 71 224 195 224 216 0 56 -786 709 -853 709 -8 0 -40
-15 -71 -34 -114 -68 -251 -75 -365 -17 -72 37 -149 109 -179 167 -29 57 -44
146 -41 232 l4 75 -220 111 c-121 62 -283 140 -360 174 -159 70 -406 172 -417
172 -3 0 -13 -7 -22 -15z m275 -162 c112 -48 308 -139 434 -203 l230 -115 6
-95 c8 -118 13 -140 55 -216 44 -80 118 -147 212 -192 75 -36 80 -37 192 -37
112 0 117 1 194 38 l80 38 45 -32 c169 -120 447 -349 646 -533 l70 -64 -35
-37 c-47 -50 -181 -153 -255 -197 -211 -126 -431 -188 -710 -203 -392 -20
-779 138 -1078 442 -108 109 -183 215 -253 358 -157 320 -193 705 -98 1041 21
73 31 94 44 94 10 0 109 -39 221 -87z"/>
<path d="M2397 1873 c-3 -5 -8 -37 -12 -73 -3 -36 -15 -138 -26 -228 -15 -122
-17 -171 -9 -200 14 -53 66 -139 92 -153 19 -10 25 -8 43 15 30 38 55 113 55
166 0 25 -21 117 -46 205 -25 88 -52 186 -61 218 -14 53 -25 68 -36 50z"/>
<path d="M2610 1875 c0 -21 217 -376 255 -416 57 -61 185 -113 212 -86 18 17
4 85 -33 162 -22 49 -41 65 -214 194 -183 136 -220 161 -220 146z"/>
<path d="M2456 2739 c-91 -15 -186 -108 -201 -198 -24 -142 94 -285 235 -285
73 0 124 19 172 62 58 53 81 104 80 180 -1 78 -28 139 -85 187 -34 29 -124 68
-146 64 -3 -1 -28 -5 -55 -10z"/>
<path d="M4093 1955 c-44 -27 -58 -52 -48 -85 4 -11 56 -106 116 -211 60 -105
109 -192 109 -193 0 -2 -107 -6 -237 -9 -278 -8 -277 -8 -275 -99 1 -42 6 -57
24 -72 22 -18 39 -18 350 -12 180 4 334 9 342 12 22 9 47 52 48 83 1 29 -283
543 -325 589 -26 28 -52 28 -104 -3z"/>
</g>
</svg>
