<?xml version="1.0" standalone="no"?>
<!DOCTYPE svg PUBLIC "-//W3C//DTD SVG 20010904//EN"
 "http://www.w3.org/TR/2001/REC-SVG-20010904/DTD/svg10.dtd">
<svg version="1.0" xmlns="http://www.w3.org/2000/svg"
 width="500.000000pt" height="500.000000pt" viewBox="0 0 500.000000 500.000000"
 preserveAspectRatio="xMidYMid meet">

<g transform="translate(0.000000,500.000000) scale(0.100000,-0.100000)"
fill="#000000" stroke="none">
<path d="M2350 4051 c-193 -21 -354 -68 -535 -156 -195 -94 -351 -213 -488
-370 -615 -710 -472 -1791 307 -2316 711 -479 1686 -287 2158 426 362 545 352
1236 -25 1772 -79 112 -247 280 -362 361 -178 126 -429 231 -636 266 -109 19
-320 27 -419 17z m427 -120 c526 -102 955 -487 1112 -996 50 -164 65 -263 64
-435 0 -175 -17 -289 -65 -439 -47 -147 -88 -233 -107 -226 -9 4 -124 68 -256
142 -132 75 -289 164 -348 197 -91 52 -107 64 -102 81 41 142 47 183 42 280
-11 209 -119 389 -299 498 -254 153 -602 96 -788 -129 -19 -24 -41 -43 -47
-43 -7 -1 -106 52 -220 117 -115 66 -274 157 -355 202 l-147 84 19 30 c198
314 553 558 917 631 194 39 399 41 580 6z m-1205 -962 c194 -111 355 -203 357
-205 2 -1 -7 -31 -19 -66 -50 -145 -35 -335 37 -481 46 -91 170 -218 260 -265
222 -116 497 -88 690 71 29 23 64 59 80 79 15 21 34 37 41 38 7 0 142 -74 300
-163 158 -90 318 -181 355 -201 l68 -38 -20 -32 c-142 -224 -375 -423 -627
-536 -86 -39 -236 -85 -349 -107 -133 -25 -387 -23 -521 5 -568 120 -995 526
-1134 1077 -68 266 -60 538 22 794 35 109 87 231 99 231 4 0 167 -91 361 -201z
m1063 36 c88 -23 152 -62 231 -140 130 -128 180 -297 143 -477 -39 -188 -209
-358 -397 -397 -178 -37 -347 14 -478 144 -129 128 -180 298 -143 477 38 184
199 349 382 394 73 17 192 17 262 -1z"/>
<path d="M2385 2896 c-117 -37 -200 -107 -252 -214 -37 -73 -38 -80 -38 -182
0 -97 2 -110 31 -170 46 -95 101 -153 192 -197 73 -37 79 -38 182 -38 102 0
109 1 182 38 328 162 301 627 -45 756 -67 24 -186 28 -252 7z m263 -121 c59
-32 101 -75 134 -138 19 -35 23 -58 23 -137 0 -79 -4 -102 -23 -137 -33 -63
-74 -106 -134 -139 -48 -26 -62 -29 -148 -29 -87 0 -100 3 -149 30 -66 37
-115 92 -141 162 -22 59 -26 146 -10 205 24 85 118 181 204 208 17 5 67 8 111
7 66 -3 89 -8 133 -32z"/>
<path d="M729 3701 c-231 -5 -259 -8 -277 -24 -26 -23 -40 -65 -33 -92 3 -12
77 -146 164 -298 166 -291 172 -298 231 -283 37 9 86 55 86 79 0 12 -51 112
-114 222 -63 110 -112 203 -109 208 2 4 97 7 211 7 204 0 268 7 284 32 13 21
9 113 -6 134 -17 23 -48 24 -437 15z"/>
<path d="M4093 1955 c-44 -27 -58 -52 -48 -85 4 -11 56 -106 116 -211 60 -105
109 -192 109 -193 0 -2 -107 -6 -237 -9 -278 -8 -277 -8 -275 -99 1 -42 6 -57
24 -72 22 -18 39 -18 350 -12 180 4 334 9 342 12 22 9 47 52 48 83 1 29 -283
543 -325 589 -26 28 -52 28 -104 -3z"/>
</g>
</svg>
