<?xml version="1.0" encoding="UTF-8"?>
<!DOCTYPE svg PUBLIC "-//W3C//DTD SVG 1.1//EN" "http://www.w3.org/Graphics/SVG/1.1/DTD/svg11.dtd">
<svg xmlns="http://www.w3.org/2000/svg" version="1.1" width="500px" height="500px" style="shape-rendering:geometricPrecision; text-rendering:geometricPrecision; image-rendering:optimizeQuality; fill-rule:evenodd; clip-rule:evenodd" xmlns:xlink="http://www.w3.org/1999/xlink">
<g><path style="opacity:0.972" fill="#0a0606" d="M 499.5,100.5 C 499.5,123.167 499.5,145.833 499.5,168.5C 494.897,193.134 486.397,216.468 474,238.5C 452.535,269.777 423.701,291.443 387.5,303.5C 390.346,316.907 393.512,330.24 397,343.5C 402.245,350.324 407.245,357.324 412,364.5C 413.584,368.425 414.917,372.425 416,376.5C 421.225,379.389 426.892,380.722 433,380.5C 438.527,380.547 443.861,379.547 449,377.5C 452.811,378.262 453.478,380.262 451,383.5C 448.872,386.63 446.372,389.463 443.5,392C 437.003,397.085 430.003,401.418 422.5,405C 425.446,405.806 428.112,407.139 430.5,409C 432.037,410.11 432.703,411.61 432.5,413.5C 431.041,413.433 429.708,413.766 428.5,414.5C 427.398,412.908 428.065,412.075 430.5,412C 428.807,411.153 427.14,410.32 425.5,409.5C 422.329,408.078 418.996,407.078 415.5,406.5C 415.351,405.448 415.517,404.448 416,403.5C 418.314,402.267 420.481,400.933 422.5,399.5C 428.423,397.205 434.09,394.372 439.5,391C 443.358,388.642 446.358,385.475 448.5,381.5C 448.333,381.167 448.167,380.833 448,380.5C 439.535,384.816 430.701,388.15 421.5,390.5C 418.873,391.092 416.206,391.425 413.5,391.5C 413.433,383.996 412.266,376.663 410,369.5C 404.333,361.167 398.667,352.833 393,344.5C 390.513,337.871 388.679,331.204 387.5,324.5C 384.948,306.516 379.614,289.516 371.5,273.5C 361.449,252.116 345.783,236.449 324.5,226.5C 295.463,213.578 265.13,209.411 233.5,214C 227.613,214.767 221.947,215.933 216.5,217.5C 172.475,225.181 132.808,242.681 97.5,270C 94.1325,273.703 90.4658,277.036 86.5,280C 80.1642,286.155 74.8308,292.988 70.5,300.5C 67.7417,303.678 65.7417,307.345 64.5,311.5C 60.4154,322.168 56.0821,332.835 51.5,343.5C 50.5489,342.081 50.2155,340.415 50.5,338.5C 53.1497,328.434 56.4831,318.6 60.5,309C 57.4881,303.147 54.3214,297.314 51,291.5C 44.234,274.037 41.9007,256.037 44,237.5C 44.4497,235.481 45.283,233.648 46.5,232C 65.8628,229.448 84.5294,232.115 102.5,240C 108.838,242.836 115.172,245.669 121.5,248.5C 170.794,218.884 223.961,205.884 281,209.5C 261.623,170.217 259.623,129.884 275,88.5C 284.648,67.3468 298.481,49.5134 316.5,35C 318.833,33 321.167,33 323.5,35C 341.553,58.5209 349.553,85.1876 347.5,115C 346.96,136.933 345.46,158.767 343,180.5C 362.689,146.799 387.522,117.299 417.5,92C 435.412,76.3771 456.079,66.0438 479.5,61C 482.167,60.3333 484.833,60.3333 487.5,61C 493.766,73.5839 497.766,86.7506 499.5,100.5 Z"/></g>
<g><path style="opacity:1" fill="#312c29" d="M 337.5,182.5 C 336.834,185.358 336.167,188.358 335.5,191.5C 334.667,189.5 333.833,187.5 333,185.5C 332.237,188.063 331.737,188.063 331.5,185.5C 331.818,184.353 332.484,183.519 333.5,183C 331.68,182.021 330.513,180.521 330,178.5C 328.059,182.554 327.225,182.22 327.5,177.5C 329.138,166.477 330.971,155.477 333,144.5C 334.418,128.522 334.752,112.522 334,96.5C 331.696,82.2497 327.029,68.9164 320,56.5C 319.311,55.6433 318.478,54.9767 317.5,54.5C 300.273,69.2552 288.273,87.5885 281.5,109.5C 278.173,106.197 276.173,102.197 275.5,97.5C 283.824,73.9968 297.824,54.4968 317.5,39C 318.944,38.2195 320.277,38.3861 321.5,39.5C 333.458,55.5313 340.625,73.5313 343,93.5C 344.365,123.523 342.532,153.19 337.5,182.5 Z"/></g>
<g><path style="opacity:1" fill="#181715" d="M 278.5,191.5 C 279.325,189.692 280.325,187.859 281.5,186C 280.713,183.901 280.38,181.734 280.5,179.5C 281.87,183.429 283.37,187.429 285,191.5C 284.197,182.14 282.864,172.806 281,163.5C 275.983,122.382 287.817,87.0491 316.5,57.5C 322.952,67.1944 327.118,77.8611 329,89.5C 333.306,133.327 328.139,175.994 313.5,217.5C 312.41,216.273 311.076,215.44 309.5,215C 301.962,214.226 294.628,212.559 287.5,210C 284.088,204.011 281.088,197.844 278.5,191.5 Z"/></g>
<g><path style="opacity:1" fill="#181816" d="M 467.5,142.5 C 467.762,141.022 467.429,139.689 466.5,138.5C 465.167,138.833 463.833,139.167 462.5,139.5C 461.833,141.5 461.167,143.5 460.5,145.5C 459.284,146.002 458.117,146.335 457,146.5C 456.333,147.167 456.333,147.833 457,148.5C 457.654,147.304 458.154,147.304 458.5,148.5C 457.313,149.519 456.313,150.686 455.5,152C 454.451,152.492 453.451,152.326 452.5,151.5C 451.833,152.5 451.167,153.5 450.5,154.5C 449.335,153.509 448.168,152.509 447,151.5C 446.5,151.667 446,151.833 445.5,152C 444.475,154.071 443.642,156.238 443,158.5C 442.333,159.833 441.667,159.833 441,158.5C 440.683,160.301 440.016,160.634 439,159.5C 437.562,160.9 436.729,162.567 436.5,164.5C 435.127,164.343 433.793,164.51 432.5,165C 426.016,171.723 419.016,177.056 411.5,181C 412.833,181.667 412.833,182.333 411.5,183C 410.552,183.483 409.552,183.649 408.5,183.5C 408.798,186.336 408.131,186.836 406.5,185C 407.453,183.045 408.787,181.378 410.5,180C 408,179.625 405.667,178.792 403.5,177.5C 399.183,180.152 395.516,183.485 392.5,187.5C 383.195,209.209 376.862,231.709 373.5,255C 373.405,258.629 373.738,261.962 374.5,265C 373.584,265.278 372.918,265.778 372.5,266.5C 363.656,253.315 353.323,241.315 341.5,230.5C 361.4,182.454 391.067,141.62 430.5,108C 437.891,102.277 445.557,96.9436 453.5,92C 468.287,83.4256 474.62,87.7589 472.5,105C 472.057,117.8 470.39,130.3 467.5,142.5 Z"/></g>
<g><path style="opacity:1" fill="#37312d" d="M 487.5,198.5 C 486.732,197.737 486.232,196.737 486,195.5C 483.769,202.395 479.936,208.229 474.5,213C 472.726,213.97 470.893,214.804 469,215.5C 467.124,214.381 466.291,212.714 466.5,210.5C 462.484,209.9 458.984,210.9 456,213.5C 455.586,213.043 455.086,212.709 454.5,212.5C 451.749,214.293 448.916,215.959 446,217.5C 444.583,216.922 443.75,215.922 443.5,214.5C 461.921,180.828 472.921,144.828 476.5,106.5C 476.333,103.167 476.167,99.8333 476,96.5C 474.58,92.0719 473.08,87.7386 471.5,83.5C 462.824,84.3339 454.824,87.1672 447.5,92C 397.959,126.874 361.792,172.374 339,228.5C 338.586,228.957 338.086,229.291 337.5,229.5C 333.624,227.916 330.624,225.416 328.5,222C 331.271,213.69 334.437,205.523 338,197.5C 360.791,154.033 391.624,117.2 430.5,87C 444.969,76.4339 460.969,69.1006 478.5,65C 482.463,63.7636 485.297,64.9302 487,68.5C 500.729,111.763 500.895,155.096 487.5,198.5 Z"/></g>
<g><path style="opacity:1" fill="#2a2726" d="M 275.5,97.5 C 276.173,102.197 278.173,106.197 281.5,109.5C 275.241,132.708 274.907,156.042 280.5,179.5C 280.38,181.734 280.713,183.901 281.5,186C 280.325,187.859 279.325,189.692 278.5,191.5C 271.684,174.118 268.351,155.952 268.5,137C 269.433,125.765 270.933,114.598 273,103.5C 273.566,101.277 274.4,99.2774 275.5,97.5 Z"/></g>
<g><path style="opacity:1" fill="#252321" d="M 327.5,177.5 C 327.225,182.22 328.059,182.554 330,178.5C 330.513,180.521 331.68,182.021 333.5,183C 332.484,183.519 331.818,184.353 331.5,185.5C 331.737,188.063 332.237,188.063 333,185.5C 333.833,187.5 334.667,189.5 335.5,191.5C 336.167,188.358 336.834,185.358 337.5,182.5C 337.665,185.85 337.498,189.183 337,192.5C 332.099,202.297 327.766,212.297 324,222.5C 321.271,221.273 319.438,219.273 318.5,216.5C 321.193,203.295 324.193,190.295 327.5,177.5 Z"/></g>
<g><path style="opacity:1" fill="#201f1d" d="M 467.5,142.5 C 456.581,188.509 434.581,228.342 401.5,262C 393.894,267.429 385.894,272.263 377.5,276.5C 375.822,273.145 374.156,269.811 372.5,266.5C 372.918,265.778 373.584,265.278 374.5,265C 373.738,261.962 373.405,258.629 373.5,255C 376.862,231.709 383.195,209.209 392.5,187.5C 395.516,183.485 399.183,180.152 403.5,177.5C 405.667,178.792 408,179.625 410.5,180C 408.787,181.378 407.453,183.045 406.5,185C 408.131,186.836 408.798,186.336 408.5,183.5C 409.552,183.649 410.552,183.483 411.5,183C 412.833,182.333 412.833,181.667 411.5,181C 419.016,177.056 426.016,171.723 432.5,165C 433.793,164.51 435.127,164.343 436.5,164.5C 436.729,162.567 437.562,160.9 439,159.5C 440.016,160.634 440.683,160.301 441,158.5C 441.667,159.833 442.333,159.833 443,158.5C 443.642,156.238 444.475,154.071 445.5,152C 446,151.833 446.5,151.667 447,151.5C 448.168,152.509 449.335,153.509 450.5,154.5C 451.167,153.5 451.833,152.5 452.5,151.5C 453.451,152.326 454.451,152.492 455.5,152C 456.313,150.686 457.313,149.519 458.5,148.5C 458.154,147.304 457.654,147.304 457,148.5C 456.333,147.833 456.333,147.167 457,146.5C 458.117,146.335 459.284,146.002 460.5,145.5C 461.167,143.5 461.833,141.5 462.5,139.5C 463.833,139.167 465.167,138.833 466.5,138.5C 467.429,139.689 467.762,141.022 467.5,142.5 Z"/></g>
<g><path style="opacity:1" fill="#b09260" d="M 324.5,226.5 C 324.567,228.401 324.233,230.234 323.5,232C 325.608,234.049 326.774,236.549 327,239.5C 331.616,243.787 335.95,248.454 340,253.5C 340.591,254.483 340.257,255.15 339,255.5C 337.7,254.548 336.533,254.548 335.5,255.5C 337.39,260.226 340.556,263.893 345,266.5C 345.49,267.793 345.657,269.127 345.5,270.5C 342.128,269.599 338.795,269.599 335.5,270.5C 339.238,273.91 342.238,277.91 344.5,282.5C 344.444,283.737 343.944,284.737 343,285.5C 336.452,282.142 329.952,278.642 323.5,275C 312.835,272.167 302.168,269.334 291.5,266.5C 287.425,268.373 283.425,270.54 279.5,273C 272.825,273.389 266.159,273.222 259.5,272.5C 260.21,269.14 258.876,267.307 255.5,267C 234.607,262.358 213.94,263.358 193.5,270C 183.916,273.459 174.916,277.959 166.5,283.5C 165.503,283.53 164.836,283.03 164.5,282C 166.065,280.333 167.731,278.667 169.5,277C 165.768,276.856 162.435,278.023 159.5,280.5C 157.116,278.475 154.783,278.141 152.5,279.5C 149.763,278.931 148.263,277.264 148,274.5C 147.241,276.063 146.074,277.063 144.5,277.5C 147.192,269.272 151.525,262.106 157.5,256C 157.038,252.438 156.038,249.771 154.5,248C 155.377,245.883 155.544,243.716 155,241.5C 155.667,244.167 156.333,244.167 157,241.5C 159.509,242.741 162.342,242.741 165.5,241.5C 165.649,240.448 165.483,239.448 165,238.5C 163.736,238.64 162.569,238.64 161.5,238.5C 163.173,236.914 165.173,236.247 167.5,236.5C 166.276,241.46 167.442,241.794 171,237.5C 171.674,238.578 172.674,239.245 174,239.5C 176.416,240.361 178.75,240.695 181,240.5C 183.258,237.701 185.925,236.368 189,236.5C 195.321,235.168 200.988,232.501 206,228.5C 206.772,228.645 207.439,228.978 208,229.5C 210.449,227.268 213.116,225.268 216,223.5C 220.401,225.691 220.567,225.025 216.5,221.5C 217.605,220.108 218.939,218.941 220.5,218C 219.207,217.51 217.873,217.343 216.5,217.5C 221.947,215.933 227.613,214.767 233.5,214C 265.13,209.411 295.463,213.578 324.5,226.5 Z"/></g>
<g><path style="opacity:1" fill="#282522" d="M 487.5,198.5 C 476.287,235.78 453.954,264.28 420.5,284C 410.595,289.785 400.262,294.785 389.5,299C 388.365,299.749 387.365,299.583 386.5,298.5C 384.223,292.004 381.557,285.67 378.5,279.5C 396.841,271.078 412.007,258.745 424,242.5C 430.769,233.275 437.269,223.942 443.5,214.5C 443.75,215.922 444.583,216.922 446,217.5C 448.916,215.959 451.749,214.293 454.5,212.5C 455.086,212.709 455.586,213.043 456,213.5C 458.984,210.9 462.484,209.9 466.5,210.5C 466.291,212.714 467.124,214.381 469,215.5C 470.893,214.804 472.726,213.97 474.5,213C 479.936,208.229 483.769,202.395 486,195.5C 486.232,196.737 486.732,197.737 487.5,198.5 Z"/></g>
<g><path style="opacity:1" fill="#967444" d="M 71.5,235.5 C 67.4862,235.334 63.4862,235.501 59.5,236C 60.9733,236.71 61.6399,237.876 61.5,239.5C 60.8333,239.5 60.1667,239.5 59.5,239.5C 56.4775,239.105 55.4775,240.105 56.5,242.5C 62.259,248.434 68.4257,253.768 75,258.5C 77.714,262.621 80.8807,266.287 84.5,269.5C 85.2945,271.495 85.9612,273.495 86.5,275.5C 81.9835,278.854 78.3168,283.021 75.5,288C 73.8659,288.494 72.1992,288.66 70.5,288.5C 70.3573,290.262 70.6906,291.929 71.5,293.5C 69.0811,295.754 67.2477,298.421 66,301.5C 63.5984,304.258 61.5984,303.925 60,300.5C 48.379,279.933 44.879,258.266 49.5,235.5C 56.9619,234.186 64.2952,234.186 71.5,235.5 Z"/></g>
<g><path style="opacity:1" fill="#82633a" d="M 59.5,239.5 C 61.6555,242.602 64.6555,244.768 68.5,246C 77.3235,253.648 83.9902,262.815 88.5,273.5C 88.1445,274.522 87.4778,275.189 86.5,275.5C 85.9612,273.495 85.2945,271.495 84.5,269.5C 80.8807,266.287 77.714,262.621 75,258.5C 68.4257,253.768 62.259,248.434 56.5,242.5C 55.4775,240.105 56.4775,239.105 59.5,239.5 Z"/></g>
<g><path style="opacity:1" fill="#a18153" d="M 71.5,235.5 C 88.0066,237.724 103.34,243.224 117.5,252C 108.23,257.551 99.3965,263.718 91,270.5C 86.0802,255.415 76.2469,245.082 61.5,239.5C 61.6399,237.876 60.9733,236.71 59.5,236C 63.4862,235.501 67.4862,235.334 71.5,235.5 Z"/></g>
<g><path style="opacity:1" fill="#b59867" d="M 216.5,217.5 C 217.873,217.343 219.207,217.51 220.5,218C 218.939,218.941 217.605,220.108 216.5,221.5C 220.567,225.025 220.401,225.691 216,223.5C 213.116,225.268 210.449,227.268 208,229.5C 207.439,228.978 206.772,228.645 206,228.5C 200.988,232.501 195.321,235.168 189,236.5C 185.925,236.368 183.258,237.701 181,240.5C 178.75,240.695 176.416,240.361 174,239.5C 172.674,239.245 171.674,238.578 171,237.5C 167.442,241.794 166.276,241.46 167.5,236.5C 165.173,236.247 163.173,236.914 161.5,238.5C 162.569,238.64 163.736,238.64 165,238.5C 165.483,239.448 165.649,240.448 165.5,241.5C 162.342,242.741 159.509,242.741 157,241.5C 156.333,244.167 155.667,244.167 155,241.5C 155.544,243.716 155.377,245.883 154.5,248C 156.038,249.771 157.038,252.438 157.5,256C 151.525,262.106 147.192,269.272 144.5,277.5C 140.002,281.83 135.335,285.997 130.5,290C 119.816,295.009 109.15,300.009 98.5,305C 97.1667,305.667 95.8333,305.667 94.5,305C 95.4506,304.282 95.6172,303.449 95,302.5C 90.9649,303.299 87.1315,304.632 83.5,306.5C 81.9018,306.39 80.2352,306.057 78.5,305.5C 71.314,310.631 68.6473,308.965 70.5,300.5C 74.8308,292.988 80.1642,286.155 86.5,280C 90.4658,277.036 94.1325,273.703 97.5,270C 132.808,242.681 172.475,225.181 216.5,217.5 Z"/></g>
<g><path style="opacity:1" fill="#140e09" d="M 259.5,272.5 C 251.469,287.871 241.469,301.871 229.5,314.5C 227.973,314.427 226.973,315.094 226.5,316.5C 216.104,323.528 204.771,328.695 192.5,332C 189.183,332.498 185.85,332.665 182.5,332.5C 182.34,330.801 182.506,329.134 183,327.5C 185.815,324.722 186.815,321.389 186,317.5C 184.509,315.996 182.676,315.163 180.5,315C 175.845,314.501 171.179,314.334 166.5,314.5C 165.387,313.054 165.22,311.387 166,309.5C 173.454,297.543 183.287,288.21 195.5,281.5C 204.311,276.896 213.644,273.896 223.5,272.5C 225.167,272.5 226.833,272.5 228.5,272.5C 232.514,272.334 236.514,272.501 240.5,273C 212.33,274.502 189.164,286.002 171,307.5C 170.51,308.793 170.343,310.127 170.5,311.5C 175.193,311.54 179.859,311.873 184.5,312.5C 186.229,313.117 187.729,314.117 189,315.5C 189.667,318.5 189.667,321.5 189,324.5C 187.812,325.563 187.312,326.897 187.5,328.5C 196.956,328.181 205.623,325.348 213.5,320C 220.011,315.577 226.345,310.911 232.5,306C 240.78,295.718 248.28,284.884 255,273.5C 255.684,272.216 255.517,271.049 254.5,270C 252.134,269.56 249.801,269.06 247.5,268.5C 231.382,266.824 215.382,267.657 199.5,271C 191.881,273.476 184.881,276.976 178.5,281.5C 168.224,286.906 159.057,293.906 151,302.5C 150.536,301.906 150.369,301.239 150.5,300.5C 155.157,294.177 160.49,288.51 166.5,283.5C 174.916,277.959 183.916,273.459 193.5,270C 213.94,263.358 234.607,262.358 255.5,267C 258.876,267.307 260.21,269.14 259.5,272.5 Z"/></g>
<g><path style="opacity:1" fill="#977443" d="M 371.5,273.5 C 379.614,289.516 384.948,306.516 387.5,324.5C 387.5,327.167 387.5,329.833 387.5,332.5C 380.684,339.11 373.017,344.944 364.5,350C 348.639,357.401 331.973,360.068 314.5,358C 310.083,357.301 306.083,355.801 302.5,353.5C 304.144,353.286 305.644,353.62 307,354.5C 308.298,353.44 309.465,352.274 310.5,351C 309.498,349.234 309.832,347.567 311.5,346C 310.141,344.796 309.141,343.296 308.5,341.5C 307.742,342.811 306.742,343.311 305.5,343C 306.5,341.333 307.833,340 309.5,339C 306.8,338.051 305.967,336.217 307,333.5C 307.974,335.878 308.641,335.544 309,332.5C 310.253,336.044 312.087,336.377 314.5,333.5C 313.653,331.939 313.986,330.439 315.5,329C 311.682,327.118 311.516,324.951 315,322.5C 315.333,323.167 315.667,323.833 316,324.5C 316.84,321.536 317.84,321.203 319,323.5C 319.75,322.874 320.584,322.374 321.5,322C 321.167,321.667 320.833,321.333 320.5,321C 321.904,317.11 323.404,317.61 325,322.5C 327.33,319.818 327.83,320.151 326.5,323.5C 327.989,323.533 329.322,324.033 330.5,325C 326.718,325.934 326.885,326.768 331,327.5C 334.139,326.438 337.306,325.438 340.5,324.5C 341.276,322.644 342.609,321.311 344.5,320.5C 342.515,320.396 341.015,319.063 340,316.5C 339.082,318.632 337.749,319.299 336,318.5C 335.872,315.486 335.872,312.486 336,309.5C 335.151,311.506 333.985,312.172 332.5,311.5C 333.641,310.575 333.641,309.741 332.5,309C 335.943,308.779 336.276,307.779 333.5,306C 333.461,304.755 333.795,303.422 334.5,302C 333.077,301.955 332.077,300.789 331.5,298.5C 331.833,298.167 332.167,297.833 332.5,297.5C 333.551,298.885 334.884,299.885 336.5,300.5C 336.833,299.833 337.167,299.167 337.5,298.5C 338.464,301.083 339.798,301.583 341.5,300C 340.833,299.667 340.167,299.333 339.5,299C 340.849,298.228 341.682,297.061 342,295.5C 343.008,295.018 344.175,294.852 345.5,295C 345.167,294.667 344.833,294.333 344.5,294C 346.5,292.667 348.5,291.333 350.5,290C 349.833,289.333 349.167,288.667 348.5,288C 349.738,288.077 350.738,287.911 351.5,287.5C 351.099,285.566 350.099,284.066 348.5,283C 350.79,282.21 351.123,280.876 349.5,279C 349.896,277.103 350.896,275.603 352.5,274.5C 351.41,273.391 351.41,272.391 352.5,271.5C 353.192,272.025 353.692,272.692 354,273.5C 355.667,272.5 357,271.167 358,269.5C 358.741,270.641 359.575,270.641 360.5,269.5C 361.509,272.337 363.509,273.67 366.5,273.5C 366.519,280.531 367.019,280.864 368,274.5C 370.484,277.259 371.65,276.926 371.5,273.5 Z"/></g>
<g><path style="opacity:1" fill="#a48154" d="M 247.5,268.5 C 241.013,269.328 234.346,269.828 227.5,270C 225.68,270.2 224.347,271.034 223.5,272.5C 213.644,273.896 204.311,276.896 195.5,281.5C 193.193,281.986 191.027,281.986 189,281.5C 187.716,282.572 187.383,283.905 188,285.5C 186.112,283.078 184.112,283.078 182,285.5C 181.667,285.167 181.333,284.833 181,284.5C 180.493,285.996 180.993,287.163 182.5,288C 180.77,289.852 179.604,289.686 179,287.5C 177.529,289.902 176.029,289.736 174.5,287C 176.439,285.568 177.772,283.735 178.5,281.5C 184.881,276.976 191.881,273.476 199.5,271C 215.382,267.657 231.382,266.824 247.5,268.5 Z"/></g>
<g><path style="opacity:1" fill="#9a7846" d="M 324.5,226.5 C 345.783,236.449 361.449,252.116 371.5,273.5C 371.65,276.926 370.484,277.259 368,274.5C 367.019,280.864 366.519,280.531 366.5,273.5C 363.509,273.67 361.509,272.337 360.5,269.5C 359.575,270.641 358.741,270.641 358,269.5C 357,271.167 355.667,272.5 354,273.5C 353.692,272.692 353.192,272.025 352.5,271.5C 351.41,272.391 351.41,273.391 352.5,274.5C 350.896,275.603 349.896,277.103 349.5,279C 351.123,280.876 350.79,282.21 348.5,283C 350.099,284.066 351.099,285.566 351.5,287.5C 350.738,287.911 349.738,288.077 348.5,288C 349.167,288.667 349.833,289.333 350.5,290C 348.5,291.333 346.5,292.667 344.5,294C 344.833,294.333 345.167,294.667 345.5,295C 344.175,294.852 343.008,295.018 342,295.5C 341.682,297.061 340.849,298.228 339.5,299C 340.167,299.333 340.833,299.667 341.5,300C 339.798,301.583 338.464,301.083 337.5,298.5C 337.167,299.167 336.833,299.833 336.5,300.5C 334.884,299.885 333.551,298.885 332.5,297.5C 332.167,297.833 331.833,298.167 331.5,298.5C 332.077,300.789 333.077,301.955 334.5,302C 333.795,303.422 333.461,304.755 333.5,306C 336.276,307.779 335.943,308.779 332.5,309C 333.641,309.741 333.641,310.575 332.5,311.5C 333.985,312.172 335.151,311.506 336,309.5C 335.872,312.486 335.872,315.486 336,318.5C 337.749,319.299 339.082,318.632 340,316.5C 341.015,319.063 342.515,320.396 344.5,320.5C 342.609,321.311 341.276,322.644 340.5,324.5C 337.306,325.438 334.139,326.438 331,327.5C 326.885,326.768 326.718,325.934 330.5,325C 329.322,324.033 327.989,323.533 326.5,323.5C 327.83,320.151 327.33,319.818 325,322.5C 323.404,317.61 321.904,317.11 320.5,321C 320.833,321.333 321.167,321.667 321.5,322C 320.584,322.374 319.75,322.874 319,323.5C 317.84,321.203 316.84,321.536 316,324.5C 315.667,323.833 315.333,323.167 315,322.5C 311.516,324.951 311.682,327.118 315.5,329C 313.986,330.439 313.653,331.939 314.5,333.5C 312.087,336.377 310.253,336.044 309,332.5C 308.641,335.544 307.974,335.878 307,333.5C 305.967,336.217 306.8,338.051 309.5,339C 307.833,340 306.5,341.333 305.5,343C 306.742,343.311 307.742,342.811 308.5,341.5C 309.141,343.296 310.141,344.796 311.5,346C 309.832,347.567 309.498,349.234 310.5,351C 309.465,352.274 308.298,353.44 307,354.5C 305.644,353.62 304.144,353.286 302.5,353.5C 296.772,351.289 292.105,347.622 288.5,342.5C 287.914,342.709 287.414,343.043 287,343.5C 285.578,339.734 283.911,336.067 282,332.5C 281.501,328.179 281.334,323.846 281.5,319.5C 281.982,315.551 282.982,311.717 284.5,308C 284.167,307.5 283.833,307 283.5,306.5C 281.266,309.221 279.599,312.221 278.5,315.5C 277.58,314.933 277.246,315.599 277.5,317.5C 276.5,317.5 275.5,317.5 274.5,317.5C 274.174,315.339 273.174,313.506 271.5,312C 273.928,310.838 274.595,309.171 273.5,307C 274.289,305.374 275.289,303.874 276.5,302.5C 275.009,301.756 273.509,301.09 272,300.5C 271.185,298.377 270.185,296.377 269,294.5C 268.692,295.308 268.192,295.975 267.5,296.5C 266.194,295.088 265.36,293.421 265,291.5C 264.779,294.943 263.779,295.276 262,292.5C 261.085,293.328 260.419,294.328 260,295.5C 259.151,292.478 258.485,289.478 258,286.5C 254.682,290.318 251.182,293.985 247.5,297.5C 246.167,298.5 246.167,299.5 247.5,300.5C 245.432,301.424 243.932,303.424 243,306.5C 242.667,306.167 242.333,305.833 242,305.5C 240.507,307.662 238.84,309.662 237,311.5C 237.006,313.298 237.339,314.965 238,316.5C 235.294,314.692 232.794,315.359 230.5,318.5C 229.818,317.757 229.151,317.091 228.5,316.5C 228.833,315.833 229.167,315.167 229.5,314.5C 241.469,301.871 251.469,287.871 259.5,272.5C 266.159,273.222 272.825,273.389 279.5,273C 283.425,270.54 287.425,268.373 291.5,266.5C 302.168,269.334 312.835,272.167 323.5,275C 329.952,278.642 336.452,282.142 343,285.5C 343.944,284.737 344.444,283.737 344.5,282.5C 342.238,277.91 339.238,273.91 335.5,270.5C 338.795,269.599 342.128,269.599 345.5,270.5C 345.657,269.127 345.49,267.793 345,266.5C 340.556,263.893 337.39,260.226 335.5,255.5C 336.533,254.548 337.7,254.548 339,255.5C 340.257,255.15 340.591,254.483 340,253.5C 335.95,248.454 331.616,243.787 327,239.5C 326.774,236.549 325.608,234.049 323.5,232C 324.233,230.234 324.567,228.401 324.5,226.5 Z"/></g>
<g><path style="opacity:1" fill="#9e7d4b" d="M 166.5,283.5 C 160.49,288.51 155.157,294.177 150.5,300.5C 149.766,301.929 148.599,302.929 147,303.5C 145.85,302.576 144.85,302.576 144,303.5C 143.915,301.915 143.749,300.582 143.5,299.5C 142.833,300.167 142.167,300.833 141.5,301.5C 138.717,298.649 136.384,298.983 134.5,302.5C 132.958,301.253 131.458,301.253 130,302.5C 129.333,299.833 128.667,299.833 128,302.5C 127.647,300.926 126.98,299.259 126,297.5C 124.312,298.325 124.145,299.325 125.5,300.5C 123.552,302.539 121.385,302.539 119,300.5C 118.667,301.167 118.333,301.833 118,302.5C 117.182,297.206 116.682,297.206 116.5,302.5C 114.435,301.555 112.601,300.888 111,300.5C 110.957,303.217 109.957,303.884 108,302.5C 105.918,303.461 104.085,304.794 102.5,306.5C 101.914,306.291 101.414,305.957 101,305.5C 98.6361,307.059 97.1361,309.225 96.5,312C 92.9808,313.607 89.4808,314.107 86,313.5C 82.1906,314.577 78.3573,315.577 74.5,316.5C 71.5252,315.861 68.5252,315.361 65.5,315C 64.6634,313.989 64.33,312.822 64.5,311.5C 65.7417,307.345 67.7417,303.678 70.5,300.5C 68.6473,308.965 71.314,310.631 78.5,305.5C 80.2352,306.057 81.9018,306.39 83.5,306.5C 87.1315,304.632 90.9649,303.299 95,302.5C 95.6172,303.449 95.4506,304.282 94.5,305C 95.8333,305.667 97.1667,305.667 98.5,305C 109.15,300.009 119.816,295.009 130.5,290C 135.335,285.997 140.002,281.83 144.5,277.5C 146.074,277.063 147.241,276.063 148,274.5C 148.263,277.264 149.763,278.931 152.5,279.5C 154.783,278.141 157.116,278.475 159.5,280.5C 162.435,278.023 165.768,276.856 169.5,277C 167.731,278.667 166.065,280.333 164.5,282C 164.836,283.03 165.503,283.53 166.5,283.5 Z"/></g>
<g><path style="opacity:1" fill="#765b37" d="M 228.5,272.5 C 233.015,271.188 237.682,271.188 242.5,272.5C 242.833,273.167 243.167,273.833 243.5,274.5C 239.541,277.153 235.208,278.819 230.5,279.5C 229.618,280.76 228.618,281.926 227.5,283C 223.941,284.228 220.608,285.894 217.5,288C 208.809,291.348 200.142,294.682 191.5,298C 190.711,300.365 189.544,302.532 188,304.5C 185.411,306.211 182.911,308.045 180.5,310C 181.858,310.934 183.192,311.768 184.5,312.5C 179.859,311.873 175.193,311.54 170.5,311.5C 170.343,310.127 170.51,308.793 171,307.5C 189.164,286.002 212.33,274.502 240.5,273C 236.514,272.501 232.514,272.334 228.5,272.5 Z"/></g>
<g><path style="opacity:1" fill="#987543" d="M 278.5,315.5 C 276.308,326.319 277.642,336.652 282.5,346.5C 282.5,347.167 282.5,347.833 282.5,348.5C 272.229,350.154 261.895,351.154 251.5,351.5C 248.832,346.841 245.665,342.508 242,338.5C 244.872,346.912 248.872,354.912 254,362.5C 260.732,375.294 266.898,388.294 272.5,401.5C 271.18,402.942 269.514,403.608 267.5,403.5C 267.649,404.552 267.483,405.552 267,406.5C 257.127,419.373 245.627,430.54 232.5,440C 229.112,442.786 226.446,446.119 224.5,450C 223.552,450.483 222.552,450.649 221.5,450.5C 215.883,448.438 211.216,449.771 207.5,454.5C 205.596,450.661 203.763,446.661 202,442.5C 199.806,440.163 197.306,439.83 194.5,441.5C 193.5,441.5 192.5,441.5 191.5,441.5C 191.5,439.167 191.5,436.833 191.5,434.5C 194.6,433.991 195.434,432.658 194,430.5C 190.016,431.614 186.183,432.948 182.5,434.5C 181.539,432.735 181.205,430.735 181.5,428.5C 194.386,424.641 205.886,418.308 216,409.5C 220.728,411.058 225.562,412.058 230.5,412.5C 230.5,411.5 230.5,410.5 230.5,409.5C 219.7,407.31 209.366,403.81 199.5,399C 194.543,395.882 190.876,391.715 188.5,386.5C 192.054,385.751 195.72,384.918 199.5,384C 206.686,378.47 211.52,371.303 214,362.5C 214.925,361.953 215.758,361.287 216.5,360.5C 224.756,347.056 228.756,332.389 228.5,316.5C 229.151,317.091 229.818,317.757 230.5,318.5C 232.794,315.359 235.294,314.692 238,316.5C 237.339,314.965 237.006,313.298 237,311.5C 238.84,309.662 240.507,307.662 242,305.5C 242.333,305.833 242.667,306.167 243,306.5C 243.932,303.424 245.432,301.424 247.5,300.5C 246.167,299.5 246.167,298.5 247.5,297.5C 251.182,293.985 254.682,290.318 258,286.5C 258.485,289.478 259.151,292.478 260,295.5C 260.419,294.328 261.085,293.328 262,292.5C 263.779,295.276 264.779,294.943 265,291.5C 265.36,293.421 266.194,295.088 267.5,296.5C 268.192,295.975 268.692,295.308 269,294.5C 270.185,296.377 271.185,298.377 272,300.5C 273.509,301.09 275.009,301.756 276.5,302.5C 275.289,303.874 274.289,305.374 273.5,307C 274.595,309.171 273.928,310.838 271.5,312C 273.174,313.506 274.174,315.339 274.5,317.5C 275.5,317.5 276.5,317.5 277.5,317.5C 277.246,315.599 277.58,314.933 278.5,315.5 Z"/></g>
<g><path style="opacity:1" fill="#947141" d="M 247.5,268.5 C 249.801,269.06 252.134,269.56 254.5,270C 255.517,271.049 255.684,272.216 255,273.5C 248.28,284.884 240.78,295.718 232.5,306C 226.345,310.911 220.011,315.577 213.5,320C 205.623,325.348 196.956,328.181 187.5,328.5C 187.312,326.897 187.812,325.563 189,324.5C 189.667,321.5 189.667,318.5 189,315.5C 187.729,314.117 186.229,313.117 184.5,312.5C 183.192,311.768 181.858,310.934 180.5,310C 182.911,308.045 185.411,306.211 188,304.5C 189.544,302.532 190.711,300.365 191.5,298C 200.142,294.682 208.809,291.348 217.5,288C 220.608,285.894 223.941,284.228 227.5,283C 228.618,281.926 229.618,280.76 230.5,279.5C 235.208,278.819 239.541,277.153 243.5,274.5C 243.167,273.833 242.833,273.167 242.5,272.5C 237.682,271.188 233.015,271.188 228.5,272.5C 226.833,272.5 225.167,272.5 223.5,272.5C 224.347,271.034 225.68,270.2 227.5,270C 234.346,269.828 241.013,269.328 247.5,268.5 Z"/></g>
<g><path style="opacity:1" fill="#957443" d="M 178.5,281.5 C 177.772,283.735 176.439,285.568 174.5,287C 176.029,289.736 177.529,289.902 179,287.5C 179.604,289.686 180.77,289.852 182.5,288C 180.993,287.163 180.493,285.996 181,284.5C 181.333,284.833 181.667,285.167 182,285.5C 184.112,283.078 186.112,283.078 188,285.5C 187.383,283.905 187.716,282.572 189,281.5C 191.027,281.986 193.193,281.986 195.5,281.5C 183.287,288.21 173.454,297.543 166,309.5C 165.22,311.387 165.387,313.054 166.5,314.5C 167.11,315.391 167.443,316.391 167.5,317.5C 165.523,325.788 163.856,334.288 162.5,343C 161.327,344.505 160.161,346.005 159,347.5C 159.533,342.346 159.366,337.346 158.5,332.5C 148.154,310.16 132.82,306.327 112.5,321C 106.754,326.234 102.421,332.401 99.5,339.5C 97.8819,343.556 98.5486,347.223 101.5,350.5C 100.438,351.575 100.438,352.575 101.5,353.5C 102.981,352.52 104.315,351.353 105.5,350C 106.167,349.333 106.833,349.333 107.5,350C 110.029,353.694 113.029,356.86 116.5,359.5C 117.598,360.397 117.598,361.23 116.5,362C 118.32,362.979 119.487,364.479 120,366.5C 120.772,365.151 121.939,364.318 123.5,364C 127.541,363.173 131.541,363.34 135.5,364.5C 135.291,365.086 134.957,365.586 134.5,366C 132.559,366.304 130.893,367.137 129.5,368.5C 128.459,366.009 127.626,366.009 127,368.5C 126.667,367.833 126.333,367.167 126,366.5C 122.231,369.612 117.898,371.278 113,371.5C 111.057,369.434 108.891,369.101 106.5,370.5C 104.675,369.349 102.675,368.682 100.5,368.5C 88.8744,350.854 72.5411,342.521 51.5,343.5C 56.0821,332.835 60.4154,322.168 64.5,311.5C 64.33,312.822 64.6634,313.989 65.5,315C 68.5252,315.361 71.5252,315.861 74.5,316.5C 78.3573,315.577 82.1906,314.577 86,313.5C 89.4808,314.107 92.9808,313.607 96.5,312C 97.1361,309.225 98.6361,307.059 101,305.5C 101.414,305.957 101.914,306.291 102.5,306.5C 104.085,304.794 105.918,303.461 108,302.5C 109.957,303.884 110.957,303.217 111,300.5C 112.601,300.888 114.435,301.555 116.5,302.5C 116.682,297.206 117.182,297.206 118,302.5C 118.333,301.833 118.667,301.167 119,300.5C 121.385,302.539 123.552,302.539 125.5,300.5C 124.145,299.325 124.312,298.325 126,297.5C 126.98,299.259 127.647,300.926 128,302.5C 128.667,299.833 129.333,299.833 130,302.5C 131.458,301.253 132.958,301.253 134.5,302.5C 136.384,298.983 138.717,298.649 141.5,301.5C 142.167,300.833 142.833,300.167 143.5,299.5C 143.749,300.582 143.915,301.915 144,303.5C 144.85,302.576 145.85,302.576 147,303.5C 148.599,302.929 149.766,301.929 150.5,300.5C 150.369,301.239 150.536,301.906 151,302.5C 159.057,293.906 168.224,286.906 178.5,281.5 Z"/></g>
<g><path style="opacity:1" fill="#13100e" d="M 158.5,332.5 C 157.692,354.934 146.025,364.768 123.5,362C 121.146,361.153 118.812,360.32 116.5,359.5C 113.029,356.86 110.029,353.694 107.5,350C 106.833,349.333 106.167,349.333 105.5,350C 104.315,351.353 102.981,352.52 101.5,353.5C 100.438,352.575 100.438,351.575 101.5,350.5C 105.795,344.537 110.795,339.204 116.5,334.5C 127.393,328.529 139.059,326.196 151.5,327.5C 150.174,323.33 147.508,320.163 143.5,318C 132.488,314.672 122.822,316.838 114.5,324.5C 111.236,325.927 108.736,328.261 107,331.5C 103.833,336.164 101.5,341.164 100,346.5C 99.5034,344.19 99.3367,341.857 99.5,339.5C 102.421,332.401 106.754,326.234 112.5,321C 132.82,306.327 148.154,310.16 158.5,332.5 Z"/></g>
<g><path style="opacity:1" fill="#8d6c3f" d="M 116.5,334.5 C 114.585,331.365 113.918,328.031 114.5,324.5C 122.822,316.838 132.488,314.672 143.5,318C 147.508,320.163 150.174,323.33 151.5,327.5C 139.059,326.196 127.393,328.529 116.5,334.5 Z"/></g>
<g><path style="opacity:1" fill="#735731" d="M 166.5,314.5 C 171.179,314.334 175.845,314.501 180.5,315C 182.676,315.163 184.509,315.996 186,317.5C 186.815,321.389 185.815,324.722 183,327.5C 182.506,329.134 182.34,330.801 182.5,332.5C 185.85,332.665 189.183,332.498 192.5,332C 204.771,328.695 216.104,323.528 226.5,316.5C 224.499,320.993 222.999,325.66 222,330.5C 221.486,339.368 218.986,347.534 214.5,355C 214.957,355.414 215.291,355.914 215.5,356.5C 209.127,369.745 199.46,379.079 186.5,384.5C 185.476,382.488 183.976,380.822 182,379.5C 181.833,380.167 181.667,380.833 181.5,381.5C 183.788,385.741 185.788,390.074 187.5,394.5C 181.477,394.331 175.477,393.831 169.5,393C 166.881,392.849 164.547,392.015 162.5,390.5C 175.007,383.492 185.84,374.492 195,363.5C 196.076,361.933 196.909,360.266 197.5,358.5C 197.167,357.833 196.833,357.167 196.5,356.5C 191.812,364.521 185.479,370.855 177.5,375.5C 176.279,374.535 174.946,374.702 173.5,376C 170.176,379.662 166.176,381.662 161.5,382C 161.5,380.667 161.5,379.333 161.5,378C 162.191,376.933 162.691,375.766 163,374.5C 163.333,374.833 163.667,375.167 164,375.5C 164.645,374.354 165.478,373.354 166.5,372.5C 165.167,371.167 165.167,369.833 166.5,368.5C 165.383,365.687 163.55,365.02 161,366.5C 160.667,365.5 160.333,364.5 160,363.5C 158.355,365.925 157.189,368.592 156.5,371.5C 154.274,373.922 151.94,373.922 149.5,371.5C 146.779,373.527 143.779,375.027 140.5,376C 132.045,377.326 123.545,378.159 115,378.5C 110.908,378.424 107.075,377.757 103.5,376.5C 102.833,374.5 102.167,372.5 101.5,370.5C 109.388,372.386 117.388,372.886 125.5,372C 133.606,370.446 141.606,368.279 149.5,365.5C 152.756,361.914 156.256,358.58 160,355.5C 161.913,350.597 164.247,345.93 167,341.5C 169.901,333.36 170.067,325.36 167.5,317.5C 167.443,316.391 167.11,315.391 166.5,314.5 Z"/></g>
<g><path style="opacity:1" fill="#c5c4be" d="M 154.5,337.5 C 154.607,335.621 154.107,335.288 153,336.5C 149.589,335.707 146.089,335.207 142.5,335C 145.167,334.667 147.833,334.333 150.5,334C 143.809,333.665 137.143,333.165 130.5,332.5C 137.065,331.072 144.398,330.572 152.5,331C 155.302,332.731 155.969,334.898 154.5,337.5 Z"/></g>
<g><path style="opacity:1" fill="#e4e5ea" d="M 122.5,334.5 C 123.833,334.5 125.167,334.5 126.5,334.5C 126.663,336.857 126.497,339.19 126,341.5C 122.562,345.559 120.062,344.892 118.5,339.5C 119.127,337.213 120.46,335.546 122.5,334.5 Z"/></g>
<g><path style="opacity:1" fill="#e7e5e0" d="M 130.5,332.5 C 137.143,333.165 143.809,333.665 150.5,334C 147.833,334.333 145.167,334.667 142.5,335C 146.089,335.207 149.589,335.707 153,336.5C 154.107,335.288 154.607,335.621 154.5,337.5C 154.709,348.127 149.709,354.96 139.5,358C 134.845,358.499 130.179,358.666 125.5,358.5C 124.737,357.732 123.737,357.232 122.5,357C 124.5,356.667 126.5,356.333 128.5,356C 129.056,355.617 129.389,355.117 129.5,354.5C 135.729,347.436 136.063,340.103 130.5,332.5 Z"/></g>
<g><path style="opacity:1" fill="#796039" d="M 114.5,324.5 C 113.918,328.031 114.585,331.365 116.5,334.5C 110.795,339.204 105.795,344.537 101.5,350.5C 98.5486,347.223 97.8819,343.556 99.5,339.5C 99.3367,341.857 99.5034,344.19 100,346.5C 101.5,341.164 103.833,336.164 107,331.5C 108.736,328.261 111.236,325.927 114.5,324.5 Z"/></g>
<g><path style="opacity:0.962" fill="#0c0606" d="M 281.5,319.5 C 279.41,336.819 286.077,349.986 301.5,359C 307.629,362.876 314.295,365.043 321.5,365.5C 335.794,369.975 349.46,376.141 362.5,384C 367.66,385.552 372.66,387.385 377.5,389.5C 372.558,390.965 367.891,390.298 363.5,387.5C 362.511,391.107 362.177,394.774 362.5,398.5C 361.263,399.965 360.263,401.632 359.5,403.5C 355.938,404.772 352.938,406.772 350.5,409.5C 350.719,410.938 351.219,412.271 352,413.5C 360.243,409.267 366.243,411.601 370,420.5C 373.23,414.557 378.063,412.89 384.5,415.5C 387.98,417.643 390.314,420.643 391.5,424.5C 399.811,420.344 408.145,416.178 416.5,412C 419.797,411.796 422.797,410.963 425.5,409.5C 427.14,410.32 428.807,411.153 430.5,412C 428.065,412.075 427.398,412.908 428.5,414.5C 423.345,414.965 418.345,416.131 413.5,418C 397.833,426.833 382.167,435.667 366.5,444.5C 362.748,442.216 361.581,438.882 363,434.5C 363.833,432.833 364.667,431.167 365.5,429.5C 364.833,429.167 364.167,428.833 363.5,428.5C 356.05,431.725 348.717,435.225 341.5,439C 339.866,439.494 338.199,439.66 336.5,439.5C 336.15,435.454 336.817,431.62 338.5,428C 333.781,428.125 329.281,429.292 325,431.5C 322.697,429.662 322.031,427.328 323,424.5C 326.477,419.026 330.644,414.193 335.5,410C 343.18,408.575 350.014,405.409 356,400.5C 358.125,395.227 357.958,390.06 355.5,385C 344.767,379.301 333.767,374.134 322.5,369.5C 318.808,370.763 315.308,372.43 312,374.5C 312.71,376.22 313.877,377.887 315.5,379.5C 310.231,382.655 304.564,385.155 298.5,387C 290.166,388.908 282.166,391.408 274.5,394.5C 277.138,398.135 277.971,402.135 277,406.5C 272.797,415.079 267.963,423.246 262.5,431C 264.618,433.142 267.118,434.642 270,435.5C 270.667,436.5 270.667,437.5 270,438.5C 268.491,439.09 266.991,439.756 265.5,440.5C 272.077,444.576 277.077,450.076 280.5,457C 280,457.5 279.5,458 279,458.5C 259.574,452.838 241.074,455.005 223.5,465C 217.509,469.664 211.176,473.83 204.5,477.5C 201.703,476.209 200.37,474.042 200.5,471C 201.701,466.745 202.867,462.579 204,458.5C 196.366,462.733 188.533,466.567 180.5,470C 178.741,470.798 177.074,470.631 175.5,469.5C 174.955,465.486 174.621,461.486 174.5,457.5C 171.5,458.667 168.5,459.833 165.5,461C 159.92,462.261 158.087,460.094 160,454.5C 161.308,452.359 162.808,450.359 164.5,448.5C 160.48,444.418 159.647,439.752 162,434.5C 163.731,432.383 165.898,430.883 168.5,430C 179.616,425.609 190.616,420.942 201.5,416C 204.681,413.908 207.681,411.575 210.5,409C 203.413,406.624 197.08,402.957 191.5,398C 180.431,396.972 169.431,395.472 158.5,393.5C 147.291,399.347 135.624,404.013 123.5,407.5C 121.682,413.477 119.016,418.977 115.5,424C 114.451,424.492 113.451,424.326 112.5,423.5C 110.157,420.793 107.823,418.126 105.5,415.5C 98.6461,421.522 91.6461,427.355 84.5,433C 79.1667,435.333 73.8333,437.667 68.5,440C 62.888,444.723 56.7213,448.556 50,451.5C 45.7217,447.37 45.555,442.87 49.5,438C 41.2469,439.978 33.2469,442.978 25.5,447C 21.8194,448.314 19.4861,447.147 18.5,443.5C 19.5796,440.674 20.5796,437.841 21.5,435C 16.6661,435.096 11.8328,435.596 7,436.5C 1.45913,436.729 0.125801,434.395 3,429.5C 5.16667,427.333 7.33333,425.167 9.5,423C 17.8364,418.501 25.8364,413.501 33.5,408C 13.0835,402.676 7.91683,390.843 18,372.5C 30.8033,362.868 41.6367,351.534 50.5,338.5C 50.2155,340.415 50.5489,342.081 51.5,343.5C 72.5411,342.521 88.8744,350.854 100.5,368.5C 100.328,369.492 100.662,370.158 101.5,370.5C 102.167,372.5 102.833,374.5 103.5,376.5C 104.021,380.719 102.854,384.386 100,387.5C 85.0003,401.394 67.167,408.227 46.5,408C 47.3279,408.915 48.3279,409.581 49.5,410C 64.4099,414.196 79.4099,414.529 94.5,411C 117.795,406.668 139.795,399.001 160.5,388C 166.63,384.356 172.297,380.189 177.5,375.5C 185.479,370.855 191.812,364.521 196.5,356.5C 196.833,357.167 197.167,357.833 197.5,358.5C 196.909,360.266 196.076,361.933 195,363.5C 185.84,374.492 175.007,383.492 162.5,390.5C 164.547,392.015 166.881,392.849 169.5,393C 175.477,393.831 181.477,394.331 187.5,394.5C 185.788,390.074 183.788,385.741 181.5,381.5C 181.667,380.833 181.833,380.167 182,379.5C 183.976,380.822 185.476,382.488 186.5,384.5C 186.833,385.5 187.5,386.167 188.5,386.5C 190.876,391.715 194.543,395.882 199.5,399C 209.366,403.81 219.7,407.31 230.5,409.5C 230.5,410.5 230.5,411.5 230.5,412.5C 225.562,412.058 220.728,411.058 216,409.5C 205.886,418.308 194.386,424.641 181.5,428.5C 180.71,429.609 180.21,430.942 180,432.5C 177.373,430.012 174.54,429.845 171.5,432C 168.168,434.489 165.834,437.656 164.5,441.5C 164.747,444.082 166.08,444.915 168.5,444C 173.092,440.549 177.758,437.382 182.5,434.5C 186.183,432.948 190.016,431.614 194,430.5C 195.434,432.658 194.6,433.991 191.5,434.5C 190.213,435.871 189.547,437.705 189.5,440C 189.324,446.752 190.991,447.252 194.5,441.5C 197.306,439.83 199.806,440.163 202,442.5C 203.763,446.661 205.596,450.661 207.5,454.5C 211.216,449.771 215.883,448.438 221.5,450.5C 222.458,451.962 223.624,453.295 225,454.5C 225.49,455.793 225.657,457.127 225.5,458.5C 231.361,456.075 237.361,453.909 243.5,452C 253.56,451.514 263.56,451.847 273.5,453C 269.919,448.748 265.752,445.248 261,442.5C 260.471,440.415 260.971,438.582 262.5,437C 262.102,434.226 260.769,433.393 258.5,434.5C 257.649,436.882 256.316,438.882 254.5,440.5C 253.5,440.167 252.833,439.5 252.5,438.5C 259.927,427.898 266.761,416.898 273,405.5C 273.765,403.934 273.598,402.601 272.5,401.5C 266.898,388.294 260.732,375.294 254,362.5C 248.872,354.912 244.872,346.912 242,338.5C 245.665,342.508 248.832,346.841 251.5,351.5C 252.752,353.001 253.752,354.668 254.5,356.5C 258.167,363.167 261.833,369.833 265.5,376.5C 267.794,380.751 269.794,385.084 271.5,389.5C 284.083,388.14 296.083,384.64 307.5,379C 306.541,377.536 305.208,376.703 303.5,376.5C 301.664,377.933 299.664,378.433 297.5,378C 296.402,377.23 296.402,376.397 297.5,375.5C 302.822,373.507 308.156,371.507 313.5,369.5C 307.405,366.618 301.405,363.451 295.5,360C 292.297,356.629 288.964,353.462 285.5,350.5C 284.974,348.77 283.974,347.436 282.5,346.5C 277.642,336.652 276.308,326.319 278.5,315.5C 279.599,312.221 281.266,309.221 283.5,306.5C 283.833,307 284.167,307.5 284.5,308C 282.982,311.717 281.982,315.551 281.5,319.5 Z"/></g>
<g><path style="opacity:1" fill="#4b4543" d="M 73.5,349.5 C 73.5858,350.496 73.2524,351.329 72.5,352C 66.5731,354.935 60.9065,358.268 55.5,362C 53.393,363.264 52.393,365.097 52.5,367.5C 46.0061,365.527 39.3395,364.194 32.5,363.5C 37.9853,358.515 43.3187,353.348 48.5,348C 56.9906,345.777 65.324,346.277 73.5,349.5 Z"/></g>
<g><path style="opacity:1" fill="#80623a" d="M 282.5,348.5 C 282.171,351.032 281.005,352.032 279,351.5C 271.32,355.415 263.154,357.082 254.5,356.5C 253.752,354.668 252.752,353.001 251.5,351.5C 261.895,351.154 272.229,350.154 282.5,348.5 Z"/></g>
<g><path style="opacity:1" fill="#c5c2bc" d="M 129.5,354.5 C 129.389,355.117 129.056,355.617 128.5,356C 126.5,356.333 124.5,356.667 122.5,357C 123.737,357.232 124.737,357.732 125.5,358.5C 118.926,357.439 113.759,354.106 110,348.5C 109.073,345.404 110.073,343.07 113,341.5C 113.677,346.205 115.51,350.372 118.5,354C 122.123,355.718 125.789,355.884 129.5,354.5 Z"/></g>
<g><path style="opacity:1" fill="#6c5030" d="M 282.5,346.5 C 283.974,347.436 284.974,348.77 285.5,350.5C 285.414,351.496 285.748,352.329 286.5,353C 282.223,353.526 278.889,355.526 276.5,359C 277.167,359.333 277.833,359.667 278.5,360C 275.99,361.141 274.824,362.974 275,365.5C 276.512,364.743 277.846,363.743 279,362.5C 281,362.5 283,362.5 285,362.5C 286.885,363.313 287.551,364.647 287,366.5C 284.38,365.774 281.88,366.274 279.5,368C 282.032,368.612 282.865,370.112 282,372.5C 281.667,372.167 281.333,371.833 281,371.5C 280.517,372.448 280.351,373.448 280.5,374.5C 278.265,374.205 276.265,374.539 274.5,375.5C 271.391,375.264 268.391,375.597 265.5,376.5C 261.833,369.833 258.167,363.167 254.5,356.5C 263.154,357.082 271.32,355.415 279,351.5C 281.005,352.032 282.171,351.032 282.5,348.5C 282.5,347.833 282.5,347.167 282.5,346.5 Z"/></g>
<g><path style="opacity:1" fill="#7f613a" d="M 281.5,319.5 C 281.334,323.846 281.501,328.179 282,332.5C 283.911,336.067 285.578,339.734 287,343.5C 287.414,343.043 287.914,342.709 288.5,342.5C 292.105,347.622 296.772,351.289 302.5,353.5C 306.083,355.801 310.083,357.301 314.5,358C 331.973,360.068 348.639,357.401 364.5,350C 373.017,344.944 380.684,339.11 387.5,332.5C 389.231,335.628 388.398,337.961 385,339.5C 384.586,339.043 384.086,338.709 383.5,338.5C 382.702,340.078 382.202,341.744 382,343.5C 380.647,344.685 379.48,346.019 378.5,347.5C 373.812,350.178 369.479,353.344 365.5,357C 359.241,358.751 353.241,361.085 347.5,364C 338.787,364.224 330.12,364.724 321.5,365.5C 314.295,365.043 307.629,362.876 301.5,359C 286.077,349.986 279.41,336.819 281.5,319.5 Z"/></g>
<g><path style="opacity:1" fill="#383433" d="M 73.5,349.5 C 77.6747,351.084 81.3413,353.418 84.5,356.5C 84.8571,360.664 83.1905,363.831 79.5,366C 71.9862,368.629 64.3196,370.462 56.5,371.5C 55.4726,369.806 54.1392,368.473 52.5,367.5C 52.393,365.097 53.393,363.264 55.5,362C 60.9065,358.268 66.5731,354.935 72.5,352C 73.2524,351.329 73.5858,350.496 73.5,349.5 Z"/></g>
<g><path style="opacity:1" fill="#64482b" d="M 285.5,350.5 C 288.964,353.462 292.297,356.629 295.5,360C 301.405,363.451 307.405,366.618 313.5,369.5C 308.156,371.507 302.822,373.507 297.5,375.5C 296.542,375.047 295.708,374.381 295,373.5C 288.396,374.171 281.562,374.838 274.5,375.5C 276.265,374.539 278.265,374.205 280.5,374.5C 280.351,373.448 280.517,372.448 281,371.5C 281.333,371.833 281.667,372.167 282,372.5C 282.865,370.112 282.032,368.612 279.5,368C 281.88,366.274 284.38,365.774 287,366.5C 287.551,364.647 286.885,363.313 285,362.5C 283,362.5 281,362.5 279,362.5C 277.846,363.743 276.512,364.743 275,365.5C 274.824,362.974 275.99,361.141 278.5,360C 277.833,359.667 277.167,359.333 276.5,359C 278.889,355.526 282.223,353.526 286.5,353C 285.748,352.329 285.414,351.496 285.5,350.5 Z"/></g>
<g><path style="opacity:1" fill="#6a4f2e" d="M 387.5,324.5 C 388.679,331.204 390.513,337.871 393,344.5C 398.667,352.833 404.333,361.167 410,369.5C 412.266,376.663 413.433,383.996 413.5,391.5C 416.206,391.425 418.873,391.092 421.5,390.5C 424.423,392.27 424.756,394.27 422.5,396.5C 423.791,397.527 423.791,398.527 422.5,399.5C 420.481,400.933 418.314,402.267 416,403.5C 415.517,404.448 415.351,405.448 415.5,406.5C 413.926,406.937 412.759,407.937 412,409.5C 411.586,409.043 411.086,408.709 410.5,408.5C 406.571,414.513 402.571,415.013 398.5,410C 386.448,405.367 374.448,401.534 362.5,398.5C 362.177,394.774 362.511,391.107 363.5,387.5C 367.891,390.298 372.558,390.965 377.5,389.5C 372.66,387.385 367.66,385.552 362.5,384C 349.46,376.141 335.794,369.975 321.5,365.5C 330.12,364.724 338.787,364.224 347.5,364C 353.241,361.085 359.241,358.751 365.5,357C 369.479,353.344 373.812,350.178 378.5,347.5C 379.48,346.019 380.647,344.685 382,343.5C 382.202,341.744 382.702,340.078 383.5,338.5C 384.086,338.709 384.586,339.043 385,339.5C 388.398,337.961 389.231,335.628 387.5,332.5C 387.5,329.833 387.5,327.167 387.5,324.5 Z"/></g>
<g><path style="opacity:1" fill="#89683a" d="M 229.5,314.5 C 229.167,315.167 228.833,315.833 228.5,316.5C 228.756,332.389 224.756,347.056 216.5,360.5C 215.758,361.287 214.925,361.953 214,362.5C 211.52,371.303 206.686,378.47 199.5,384C 195.72,384.918 192.054,385.751 188.5,386.5C 187.5,386.167 186.833,385.5 186.5,384.5C 199.46,379.079 209.127,369.745 215.5,356.5C 215.291,355.914 214.957,355.414 214.5,355C 218.986,347.534 221.486,339.368 222,330.5C 222.999,325.66 224.499,320.993 226.5,316.5C 226.973,315.094 227.973,314.427 229.5,314.5 Z"/></g>
<g><path style="opacity:1" fill="#6d522f" d="M 177.5,375.5 C 172.297,380.189 166.63,384.356 160.5,388C 139.795,399.001 117.795,406.668 94.5,411C 79.4099,414.529 64.4099,414.196 49.5,410C 48.3279,409.581 47.3279,408.915 46.5,408C 67.167,408.227 85.0003,401.394 100,387.5C 102.854,384.386 104.021,380.719 103.5,376.5C 107.075,377.757 110.908,378.424 115,378.5C 123.545,378.159 132.045,377.326 140.5,376C 143.779,375.027 146.779,373.527 149.5,371.5C 151.94,373.922 154.274,373.922 156.5,371.5C 157.189,368.592 158.355,365.925 160,363.5C 160.333,364.5 160.667,365.5 161,366.5C 163.55,365.02 165.383,365.687 166.5,368.5C 165.167,369.833 165.167,371.167 166.5,372.5C 165.478,373.354 164.645,374.354 164,375.5C 163.667,375.167 163.333,374.833 163,374.5C 162.691,375.766 162.191,376.933 161.5,378C 161.5,379.333 161.5,380.667 161.5,382C 166.176,381.662 170.176,379.662 173.5,376C 174.946,374.702 176.279,374.535 177.5,375.5 Z"/></g>
<g><path style="opacity:1" fill="#88693f" d="M 167.5,317.5 C 170.067,325.36 169.901,333.36 167,341.5C 164.247,345.93 161.913,350.597 160,355.5C 156.256,358.58 152.756,361.914 149.5,365.5C 141.606,368.279 133.606,370.446 125.5,372C 117.388,372.886 109.388,372.386 101.5,370.5C 100.662,370.158 100.328,369.492 100.5,368.5C 102.675,368.682 104.675,369.349 106.5,370.5C 108.891,369.101 111.057,369.434 113,371.5C 117.898,371.278 122.231,369.612 126,366.5C 126.333,367.167 126.667,367.833 127,368.5C 127.626,366.009 128.459,366.009 129.5,368.5C 130.893,367.137 132.559,366.304 134.5,366C 134.957,365.586 135.291,365.086 135.5,364.5C 131.541,363.34 127.541,363.173 123.5,364C 121.939,364.318 120.772,365.151 120,366.5C 119.487,364.479 118.32,362.979 116.5,362C 117.598,361.23 117.598,360.397 116.5,359.5C 118.812,360.32 121.146,361.153 123.5,362C 146.025,364.768 157.692,354.934 158.5,332.5C 159.366,337.346 159.533,342.346 159,347.5C 160.161,346.005 161.327,344.505 162.5,343C 163.856,334.288 165.523,325.788 167.5,317.5 Z"/></g>
<g><path style="opacity:1" fill="#3c3a3b" d="M 43.5,367.5 C 45.9013,368.539 48.2346,369.873 50.5,371.5C 49.8728,372.417 49.5394,373.417 49.5,374.5C 47.7697,375.026 46.4363,376.026 45.5,377.5C 39.4268,380.415 33.0935,382.748 26.5,384.5C 26.6854,382.804 27.5187,381.471 29,380.5C 29.4935,378.866 29.6602,377.199 29.5,375.5C 23.9789,376.355 22.3122,379.355 24.5,384.5C 24.1667,384.5 23.8333,384.5 23.5,384.5C 22.8333,384.167 22.1667,383.833 21.5,383.5C 21.7359,380.391 21.4025,377.391 20.5,374.5C 22.947,371.101 26.2803,368.935 30.5,368C 34.8206,367.501 39.1539,367.334 43.5,367.5 Z"/></g>
<g><path style="opacity:1" fill="#463623" d="M 297.5,375.5 C 296.402,376.397 296.402,377.23 297.5,378C 299.664,378.433 301.664,377.933 303.5,376.5C 305.208,376.703 306.541,377.536 307.5,379C 296.083,384.64 284.083,388.14 271.5,389.5C 269.794,385.084 267.794,380.751 265.5,376.5C 268.391,375.597 271.391,375.264 274.5,375.5C 281.562,374.838 288.396,374.171 295,373.5C 295.708,374.381 296.542,375.047 297.5,375.5 Z"/></g>
<g><path style="opacity:1" fill="#272523" d="M 84.5,356.5 C 93.2729,362.737 98.4396,371.071 100,381.5C 84.4011,398.046 65.0678,406.046 42,405.5C 33.9318,404.811 26.5985,402.144 20,397.5C 18.1597,395.319 16.9931,392.819 16.5,390C 18.1919,384.787 19.5252,379.621 20.5,374.5C 21.4025,377.391 21.7359,380.391 21.5,383.5C 20.3468,388.931 22.3468,393.098 27.5,396C 32.9996,396.557 34.8329,394.057 33,388.5C 32.2421,386.09 30.5754,385.09 28,385.5C 26.3419,385.675 25.0086,386.342 24,387.5C 23.5172,386.552 23.3505,385.552 23.5,384.5C 23.8333,384.5 24.1667,384.5 24.5,384.5C 25.1667,384.5 25.8333,384.5 26.5,384.5C 33.0935,382.748 39.4268,380.415 45.5,377.5C 42.8565,383.16 41.8565,389.16 42.5,395.5C 54.1979,391.603 56.5312,384.603 49.5,374.5C 49.5394,373.417 49.8728,372.417 50.5,371.5C 48.2346,369.873 45.9013,368.539 43.5,367.5C 45.9267,367.523 48.26,368.023 50.5,369C 51.7252,370.563 53.2252,371.73 55,372.5C 55.7648,372.43 56.2648,372.097 56.5,371.5C 64.3196,370.462 71.9862,368.629 79.5,366C 83.1905,363.831 84.8571,360.664 84.5,356.5 Z"/></g>
<g><path style="opacity:1" fill="#030202" d="M 49.5,374.5 C 56.5312,384.603 54.1979,391.603 42.5,395.5C 41.8565,389.16 42.8565,383.16 45.5,377.5C 46.4363,376.026 47.7697,375.026 49.5,374.5 Z"/></g>
<g><path style="opacity:1" fill="#636161" d="M 26.5,384.5 C 25.8333,384.5 25.1667,384.5 24.5,384.5C 22.3122,379.355 23.9789,376.355 29.5,375.5C 29.6602,377.199 29.4935,378.866 29,380.5C 27.5187,381.471 26.6854,382.804 26.5,384.5 Z"/></g>
<g><path style="opacity:1" fill="#866c3e" d="M 416.5,381.5 C 421.037,382.819 425.703,383.653 430.5,384C 426.149,386.421 421.483,387.588 416.5,387.5C 416.5,385.5 416.5,383.5 416.5,381.5 Z"/></g>
<g><path style="opacity:1" fill="#060506" d="M 21.5,383.5 C 22.1667,383.833 22.8333,384.167 23.5,384.5C 23.3505,385.552 23.5172,386.552 24,387.5C 25.0086,386.342 26.3419,385.675 28,385.5C 30.5754,385.09 32.2421,386.09 33,388.5C 34.8329,394.057 32.9996,396.557 27.5,396C 22.3468,393.098 20.3468,388.931 21.5,383.5 Z"/></g>
<g><path style="opacity:1" fill="#886538" d="M 422.5,399.5 C 423.791,398.527 423.791,397.527 422.5,396.5C 424.756,394.27 424.423,392.27 421.5,390.5C 430.701,388.15 439.535,384.816 448,380.5C 448.167,380.833 448.333,381.167 448.5,381.5C 446.358,385.475 443.358,388.642 439.5,391C 434.09,394.372 428.423,397.205 422.5,399.5 Z"/></g>
<g><path style="opacity:1" fill="#8a6c43" d="M 359.5,403.5 C 368.899,403.642 377.232,406.642 384.5,412.5C 385.776,413.614 385.776,414.614 384.5,415.5C 378.063,412.89 373.23,414.557 370,420.5C 366.243,411.601 360.243,409.267 352,413.5C 351.219,412.271 350.719,410.938 350.5,409.5C 352.938,406.772 355.938,404.772 359.5,403.5 Z"/></g>
<g><path style="opacity:1" fill="#745832" d="M 362.5,398.5 C 374.448,401.534 386.448,405.367 398.5,410C 402.571,415.013 406.571,414.513 410.5,408.5C 411.086,408.709 411.586,409.043 412,409.5C 412.759,407.937 413.926,406.937 415.5,406.5C 418.996,407.078 422.329,408.078 425.5,409.5C 422.797,410.963 419.797,411.796 416.5,412C 408.145,416.178 399.811,420.344 391.5,424.5C 390.314,420.643 387.98,417.643 384.5,415.5C 385.776,414.614 385.776,413.614 384.5,412.5C 377.232,406.642 368.899,403.642 359.5,403.5C 360.263,401.632 361.263,399.965 362.5,398.5 Z"/></g>
<g><path style="opacity:1" fill="#816c41" d="M 114.5,408.5 C 115.833,408.5 117.167,408.5 118.5,408.5C 117.476,421.597 113.809,422.597 107.5,411.5C 109.764,410.131 112.097,409.131 114.5,408.5 Z"/></g>
<g><path style="opacity:1" fill="#705534" d="M 38.5,409.5 C 44.7755,411.199 51.1089,413.032 57.5,415C 70.7807,418.201 83.9473,417.701 97,413.5C 97.8333,413.833 98.6667,414.167 99.5,414.5C 91.9232,422.575 83.0899,428.909 73,433.5C 70.0032,427.58 65.5032,425.413 59.5,427C 57.3333,429.167 55.1667,431.333 53,433.5C 52.7401,429.75 52.0734,426.084 51,422.5C 49.561,420.552 47.7277,419.219 45.5,418.5C 38.9697,422.859 32.303,427.026 25.5,431C 19.1649,430.853 13.1649,432.02 7.5,434.5C 5.36877,433.388 5.36877,431.888 7.5,430C 17.5556,422.646 27.8889,415.813 38.5,409.5 Z"/></g>
<g><path style="opacity:1" fill="#130f0a" d="M 33.5,416.5 C 35.2613,420.53 34.2613,423.863 30.5,426.5C 29.4592,422.617 30.4592,419.284 33.5,416.5 Z"/></g>
<g><path style="opacity:1" fill="#714c2d" d="M 356.5,413.5 C 363.233,413.568 367.233,416.901 368.5,423.5C 358.898,426.134 349.898,430.134 341.5,435.5C 340.756,432.21 341.589,429.21 344,426.5C 347.697,421.638 351.864,417.304 356.5,413.5 Z"/></g>
<g><path style="opacity:1" fill="#725637" d="M 344.5,409.5 C 347.524,409.175 349.191,410.508 349.5,413.5C 347.388,417.447 344.388,420.613 340.5,423C 336.757,424.136 333.09,425.47 329.5,427C 328.365,427.749 327.365,427.583 326.5,426.5C 328.975,422.858 331.642,419.358 334.5,416C 338.009,413.97 341.342,411.804 344.5,409.5 Z"/></g>
<g><path style="opacity:1" fill="#7c6039" d="M 272.5,401.5 C 273.598,402.601 273.765,403.934 273,405.5C 266.761,416.898 259.927,427.898 252.5,438.5C 252.833,439.5 253.5,440.167 254.5,440.5C 256.316,438.882 257.649,436.882 258.5,434.5C 260.769,433.393 262.102,434.226 262.5,437C 260.971,438.582 260.471,440.415 261,442.5C 265.752,445.248 269.919,448.748 273.5,453C 263.56,451.847 253.56,451.514 243.5,452C 237.361,453.909 231.361,456.075 225.5,458.5C 225.657,457.127 225.49,455.793 225,454.5C 223.624,453.295 222.458,451.962 221.5,450.5C 222.552,450.649 223.552,450.483 224.5,450C 226.446,446.119 229.112,442.786 232.5,440C 245.627,430.54 257.127,419.373 267,406.5C 267.483,405.552 267.649,404.552 267.5,403.5C 269.514,403.608 271.18,402.942 272.5,401.5 Z"/></g>
<g><path style="opacity:1" fill="#76502f" d="M 391.5,424.5 C 384.403,429.558 377.07,434.392 369.5,439C 368.552,439.483 367.552,439.649 366.5,439.5C 368.311,431.373 371.645,423.873 376.5,417C 382.935,416.595 387.935,419.095 391.5,424.5 Z"/></g>
<g><path style="opacity:1" fill="#654934" d="M 43.5,421.5 C 44.8221,421.33 45.9887,421.663 47,422.5C 48.4049,426.072 48.7383,429.739 48,433.5C 40.0113,437.244 31.8446,440.577 23.5,443.5C 23.372,441.345 23.872,439.345 25,437.5C 31.0639,431.928 37.2306,426.595 43.5,421.5 Z"/></g>
<g><path style="opacity:1" fill="#664629" d="M 61.5,428.5 C 66.6956,428.209 69.5289,430.542 70,435.5C 64.2252,439.764 58.0585,443.431 51.5,446.5C 51.1667,446 50.8333,445.5 50.5,445C 53.0425,438.748 56.7092,433.248 61.5,428.5 Z"/></g>
<g><path style="opacity:1" fill="#755c3e" d="M 191.5,434.5 C 191.5,436.833 191.5,439.167 191.5,441.5C 192.5,441.5 193.5,441.5 194.5,441.5C 190.991,447.252 189.324,446.752 189.5,440C 189.547,437.705 190.213,435.871 191.5,434.5 Z"/></g>
<g><path style="opacity:1" fill="#614d37" d="M 181.5,428.5 C 181.205,430.735 181.539,432.735 182.5,434.5C 177.758,437.382 173.092,440.549 168.5,444C 166.08,444.915 164.747,444.082 164.5,441.5C 165.834,437.656 168.168,434.489 171.5,432C 174.54,429.845 177.373,430.012 180,432.5C 180.21,430.942 180.71,429.609 181.5,428.5 Z"/></g>
<g><path style="opacity:1" fill="#6c4a2f" d="M 184.5,436.5 C 185.787,437.871 186.453,439.705 186.5,442C 185.921,448.269 182.588,452.602 176.5,455C 171.792,456.071 167.126,457.237 162.5,458.5C 162.608,456.217 163.441,454.217 165,452.5C 170.5,445.823 177,440.489 184.5,436.5 Z"/></g>
<g><path style="opacity:1" fill="#75512d" d="M 195.5,443.5 C 197.144,443.286 198.644,443.62 200,444.5C 202.036,447.602 203.036,450.935 203,454.5C 195.14,458.401 187.307,462.401 179.5,466.5C 178.386,465.277 178.219,463.944 179,462.5C 182.587,454.419 188.087,448.086 195.5,443.5 Z"/></g>
<g><path style="opacity:1" fill="#745436" d="M 214.5,451.5 C 220.702,451.531 223.535,454.531 223,460.5C 217.308,465.026 211.474,469.359 205.5,473.5C 204.335,470.465 204.502,467.465 206,464.5C 208.269,459.744 211.103,455.41 214.5,451.5 Z"/></g>
</svg>
